<svg xmlns="http://www.w3.org/2000/svg" width="1536" height="768" viewBox="0 0 1536 768"><g transform="translate(0,0)" stroke="#252b35" stroke-width="5" stroke-linejoin="round" stroke-linecap="round">
 <path d="M150 584l-13 104-45 19q-16 8-8 23h124l13-149m41 1 12 145h116q16-15-7-24l-29-19-5-105" fill="#353840"/>
 <path d="M155 242q-62 14-83 108l-31 153 59 27 19-55-12 166q107 33 247 0l-10-162 21 51 55-30-27-137q-17-99-97-121" fill="#303d57"/>
 <path d="M162 247l-16 172 90 112 91-108-26-179" fill="#684555"/><path d="M175 240l54 45 58-40-24 129h-68z" fill="#e9ddbe"/><path d="M211 279l19-9 21 10-12 20 13 90-28 31-23-36 20-85z" fill="#283447"/>
 <path d="M152 244l-42 91 37 34-30 24 76 180-33-222m147-108 37 89-37 37 29 27-71 177 32-223" fill="#384863"/>
 <path d="M122 118l-26-59q-4-22 13-18l58 36m122 0 53-34q15-8 14 13l-21 62" fill="#89715f"/>
 <path d="M129 124q-11-41 29-63l13-21 22 12 24-28 7 26 38-15-7 27q72 8 77 93l-13 77q-23 55-104 38-72-5-89-59z" fill="#938071"/>
 <path d="M126 150q20-3 24 18l19 50 46 22q-52 8-71-26z" fill="#7f685b" stroke="none"/>
 <path d="M226 163q51-28 86-6l31 43q3 31-60 32-64 0-69-23z" fill="#b18b7b"/>
 <ellipse cx="316" cy="195" rx="10" ry="14" fill="#3b3030"/><ellipse cx="283" cy="201" rx="10" ry="14" fill="#3b3030"/>
 <path d="M203 182q-19-27-21-46-22 49 1 71l28-1m108-37q10-27 17-38 16 45-7 62" fill="#eadcba"/>
 <path d="M156 125q20-9 41 1m64-3q16-8 31 1" fill="none"/>
 <path d="M164 137q14-8 29 0v13q-15 10-28-1zM264 136q14-7 26 1v13q-13 8-24-1z" fill="#e8ddc6"/><path d="M183 138v11m97-10v10" stroke-width="9"/>
 <path d="M158 113l37-2m70 0 28 4" stroke-width="7"/>
 <path d="M219 239q22 8 40 1" fill="none"/>
 <path d="M68 494l-7 29q-5 28 24 32 15-2 24-34l-5-13m260-17 9 35q8 27 31 17 14-8 6-38l-9-24" fill="#938071"/>
 <path d="M365 491l36-7 5 20-36 8z" fill="#e9ddbe"/><circle cx="389" cy="499" r="13" fill="#c3a45e"/><circle cx="389" cy="499" r="8" fill="#eee2c1" stroke-width="2"/>
 <circle cx="228" cy="432" r="5" fill="#c3a45e"/><circle cx="228" cy="465" r="5" fill="#c3a45e"/>
 </g><g transform="translate(512,0)" stroke="#252b35" stroke-width="5" stroke-linejoin="round" stroke-linecap="round">
 <path d="M150 584l-13 104-45 19q-16 8-8 23h124l13-149m41 1 12 145h116q16-15-7-24l-29-19-5-105" fill="#353840"/>
 <path d="M155 242q-62 14-83 108l-31 153 59 27 19-55-12 166q107 33 247 0l-10-162 21 51 55-30-27-137q-17-99-97-121" fill="#303d57"/>
 <path d="M162 247l-16 172 90 112 91-108-26-179" fill="#684555"/><path d="M175 240l54 45 58-40-24 129h-68z" fill="#e9ddbe"/><path d="M211 279l19-9 21 10-12 20 13 90-28 31-23-36 20-85z" fill="#283447"/>
 <path d="M152 244l-42 91 37 34-30 24 76 180-33-222m147-108 37 89-37 37 29 27-71 177 32-223" fill="#384863"/>
 <path d="M122 118l-26-59q-4-22 13-18l58 36m122 0 53-34q15-8 14 13l-21 62" fill="#89715f"/>
 <path d="M129 124q-11-41 29-63l13-21 22 12 24-28 7 26 38-15-7 27q72 8 77 93l-13 77q-23 55-104 38-72-5-89-59z" fill="#938071"/>
 <path d="M126 150q20-3 24 18l19 50 46 22q-52 8-71-26z" fill="#7f685b" stroke="none"/>
 <path d="M226 163q51-28 86-6l31 43q3 31-60 32-64 0-69-23z" fill="#b18b7b"/>
 <ellipse cx="316" cy="195" rx="10" ry="14" fill="#3b3030"/><ellipse cx="283" cy="201" rx="10" ry="14" fill="#3b3030"/>
 <path d="M203 182q-19-27-21-46-22 49 1 71l28-1m108-37q10-27 17-38 16 45-7 62" fill="#eadcba"/>
 <path d="M156 125q20-9 41 1m64-3q16-8 31 1" fill="none"/>
 <path d="M164 137q14-8 29 0v13q-15 10-28-1zM264 136q14-7 26 1v13q-13 8-24-1z" fill="#e8ddc6"/><path d="M183 138v11m97-10v10" stroke-width="9"/>
 <path d="M156 110l39-9M263 118l29 7" stroke-width="7"/>
 <path d="M219 239q22 8 40 1" fill="none"/>
 <path d="M68 494l-7 29q-5 28 24 32 15-2 24-34l-5-13m260-17 9 35q8 27 31 17 14-8 6-38l-9-24" fill="#938071"/>
 <path d="M365 491l36-7 5 20-36 8z" fill="#e9ddbe"/><circle cx="389" cy="499" r="13" fill="#c3a45e"/><circle cx="389" cy="499" r="8" fill="#eee2c1" stroke-width="2"/>
 <circle cx="228" cy="432" r="5" fill="#c3a45e"/><circle cx="228" cy="465" r="5" fill="#c3a45e"/>
 </g><g transform="translate(1024,0)" stroke="#252b35" stroke-width="5" stroke-linejoin="round" stroke-linecap="round">
 <path d="M150 584l-13 104-45 19q-16 8-8 23h124l13-149m41 1 12 145h116q16-15-7-24l-29-19-5-105" fill="#353840"/>
 <path d="M155 242q-62 14-83 108l-31 153 59 27 19-55-12 166q107 33 247 0l-10-162 21 51 55-30-27-137q-17-99-97-121" fill="#303d57"/>
 <path d="M162 247l-16 172 90 112 91-108-26-179" fill="#684555"/><path d="M175 240l54 45 58-40-24 129h-68z" fill="#e9ddbe"/><path d="M211 279l19-9 21 10-12 20 13 90-28 31-23-36 20-85z" fill="#283447"/>
 <path d="M152 244l-42 91 37 34-30 24 76 180-33-222m147-108 37 89-37 37 29 27-71 177 32-223" fill="#384863"/>
 <path d="M122 118l-26-59q-4-22 13-18l58 36m122 0 53-34q15-8 14 13l-21 62" fill="#89715f"/>
 <path d="M129 124q-11-41 29-63l13-21 22 12 24-28 7 26 38-15-7 27q72 8 77 93l-13 77q-23 55-104 38-72-5-89-59z" fill="#938071"/>
 <path d="M126 150q20-3 24 18l19 50 46 22q-52 8-71-26z" fill="#7f685b" stroke="none"/>
 <path d="M226 163q51-28 86-6l31 43q3 31-60 32-64 0-69-23z" fill="#b18b7b"/>
 <ellipse cx="316" cy="195" rx="10" ry="14" fill="#3b3030"/><ellipse cx="283" cy="201" rx="10" ry="14" fill="#3b3030"/>
 <path d="M203 182q-19-27-21-46-22 49 1 71l28-1m108-37q10-27 17-38 16 45-7 62" fill="#eadcba"/>
 <path d="M156 125q20-9 41 1m64-3q16-8 31 1" fill="none"/>
 <path d="M164 137q14-8 29 0v13q-15 10-28-1zM264 136q14-7 26 1v13q-13 8-24-1z" fill="#e8ddc6"/><path d="M183 138v11m97-10v10" stroke-width="9"/>
 <path d="M158 112l38 9m68 0 29-9" stroke-width="7"/>
 <path d="M219 239q22 -8 40 1" fill="none"/>
 <path d="M68 494l-7 29q-5 28 24 32 15-2 24-34l-5-13m260-17 9 35q8 27 31 17 14-8 6-38l-9-24" fill="#938071"/>
 <path d="M365 491l36-7 5 20-36 8z" fill="#e9ddbe"/><circle cx="389" cy="499" r="13" fill="#c3a45e"/><circle cx="389" cy="499" r="8" fill="#eee2c1" stroke-width="2"/>
 <circle cx="228" cy="432" r="5" fill="#c3a45e"/><circle cx="228" cy="465" r="5" fill="#c3a45e"/>
 </g></svg>